<svg width="12" height="12" viewBox="0 0 12 12" fill="none" xmlns="http://www.w3.org/2000/svg">
<path d="M5.69509 10.9408L3.49509 11.8408C2.99509 12.0408 2.39509 11.8408 2.19509 11.3408C2.09509 11.1408 2.09509 11.0408 2.09509 10.8408L2.29509 8.44082C2.29509 8.14082 2.19509 7.94082 2.09509 7.74082L0.495094 5.94082C0.195094 5.54082 0.195094 4.84082 0.595094 4.54082C0.795094 4.44082 0.895094 4.34082 1.09509 4.34082L3.39509 3.84082C3.69509 3.74082 3.89509 3.64082 3.99509 3.34082L5.19509 1.34082C5.49509 0.84082 6.09509 0.74082 6.59509 1.04082C6.69509 1.14082 6.89509 1.24082 6.89509 1.34082L8.09509 3.34082C8.19509 3.54082 8.49509 3.74082 8.69509 3.84082L11.0951 4.34082C11.5951 4.44082 11.9951 5.04082 11.7951 5.54082C11.7951 5.74082 11.6951 5.84082 11.5951 5.94082L10.0951 7.74082C9.89509 7.94082 9.79509 8.24082 9.89509 8.44082L10.0951 10.8408C10.0951 11.4408 9.69509 11.8408 9.19509 11.9408C8.99509 11.9408 8.89509 11.9408 8.69509 11.8408L6.49509 10.9408C6.19509 10.8408 5.99509 10.8408 5.69509 10.9408Z" fill="url(#paint0_linear)"/>
<defs>
<linearGradient id="paint0_linear" x1="6.64279" y1="-0.870233" x2="7.24045" y2="18.7395" gradientUnits="userSpaceOnUse">
<stop stop-color="#FD749B"/>
<stop offset="1" stop-color="#281AC8"/>
</linearGradient>
</defs>
</svg>
